<svg width="351" height="307" viewBox="0 0 351 307" fill="none" xmlns="http://www.w3.org/2000/svg">
<path d="M149.38 5H169.312C266.87 5.00019 345.956 84.0872 345.956 181.646V301.179H156.8C72.9634 301.179 5.00003 233.216 5 149.38C5 69.6411 69.6411 5 149.38 5Z" fill="#2376A5" stroke="#4DC9F0" stroke-width="10"/>
<path d="M106.492 145.12C106.492 117.506 128.878 95.1201 156.492 95.1201H175.141V161.06C175.141 188.674 152.755 211.06 125.141 211.06H106.492V145.12Z" fill="#4DC9F0"/>
<path d="M246.842 145.12C246.842 117.506 224.456 95.1201 196.842 95.1201H178.193V161.06C178.193 188.674 200.579 211.06 228.193 211.06H246.842V145.12Z" fill="#4DC9F0"/>
<path d="M71.4043 69.9485C71.4043 56.0469 82.6738 44.7773 96.5755 44.7773H125.14C152.754 44.7773 175.14 67.5055 175.14 95.1197H96.5755C82.6738 95.1197 71.4043 83.8502 71.4043 69.9485Z" fill="#4DC9F0"/>
<path d="M71.4043 236.231C71.4043 250.132 82.6738 261.402 96.5755 261.402H125.14C152.754 261.402 175.14 238.674 175.14 211.059H96.5755C82.6738 211.059 71.4043 222.329 71.4043 236.231Z" fill="#4DC9F0"/>
<path d="M278.875 236.231C278.875 250.132 267.605 261.402 253.704 261.402L225.139 261.402C197.525 261.402 175.139 238.674 175.139 211.059L253.704 211.059C267.605 211.059 278.875 222.329 278.875 236.231Z" fill="#4DC9F0"/>
<circle cx="200.021" cy="69.3184" r="22.1201" fill="#B2EAFB"/>
</svg>
